<svg width="34" height="38" viewBox="0 0 34 38" fill="none" xmlns="http://www.w3.org/2000/svg">
<path d="M31.2461 0.533203H11.8676C11.2252 0.533203 10.6091 0.814924 10.1548 1.31639C9.70055 1.81786 9.44534 2.49799 9.44534 3.20718H31.2461V35.2948H11.8676V22.1924H9.44534V35.2948C9.44534 36.004 9.70055 36.6842 10.1548 37.1856C10.6091 37.6871 11.2252 37.9688 11.8676 37.9688H31.2461C31.8885 37.9688 32.5046 37.6871 32.9589 37.1856C33.4132 36.6842 33.6684 36.004 33.6684 35.2948V3.20718C33.6684 2.49799 33.4132 1.81786 32.9589 1.31639C32.5046 0.814924 31.8885 0.533203 31.2461 0.533203V0.533203Z" fill="white"/>
<path d="M17.2142 24.4113C17.071 24.541 16.9548 24.7007 16.8727 24.8803C16.7906 25.0599 16.7444 25.2555 16.7371 25.4549C16.7299 25.6542 16.7616 25.853 16.8304 26.0388C16.8991 26.2246 17.0034 26.3933 17.1367 26.5343C17.27 26.6754 17.4294 26.7858 17.605 26.8586C17.7805 26.9313 17.9683 26.9649 18.1567 26.9572C18.345 26.9495 18.5299 26.9007 18.6996 26.8138C18.8693 26.7269 19.0201 26.6039 19.1428 26.4523L27.0621 18.071L19.1564 9.68963C18.8948 9.45248 18.5582 9.32856 18.214 9.34263C17.8697 9.3567 17.5432 9.50773 17.2996 9.76553C17.056 10.0233 16.9133 10.3689 16.9 10.7332C16.8867 11.0976 17.0038 11.4538 17.2279 11.7307L21.8373 16.5076H2.00472C1.64197 16.5076 1.29408 16.6601 1.03757 16.9316C0.781066 17.2031 0.636963 17.5713 0.636963 17.9552C0.636963 18.3391 0.781066 18.7073 1.03757 18.9788C1.29408 19.2502 1.64197 19.4027 2.00472 19.4027H21.8373L17.2142 24.4113Z" fill="white"/>
</svg>
