<svg width="53" height="52" viewBox="0 0 53 52" fill="none" xmlns="http://www.w3.org/2000/svg">
<path d="M11.4954 15.1582H41.3556C41.9607 15.1582 42.559 15.285 43.1121 15.5304C43.6651 15.7759 44.1606 16.1344 44.5666 16.583C44.9725 17.0317 45.28 17.5604 45.4691 18.1351C45.6583 18.7098 45.7249 19.3178 45.6647 19.9198L44.3655 32.912C44.2586 33.9806 43.7585 34.9714 42.9623 35.692C42.166 36.4127 41.1304 36.8117 40.0564 36.8118H19.3773C18.3757 36.8122 17.405 36.4654 16.6304 35.8306C15.8558 35.1957 15.3251 34.312 15.1288 33.3299L11.4954 15.1582Z" stroke="#2F2105" stroke-width="3.24804" stroke-linejoin="round"/>
<path d="M35.3143 45.4725H39.645M11.4953 15.1575L9.7414 8.13527C9.6241 7.66702 9.3537 7.25139 8.97315 6.9544C8.5926 6.65742 8.12372 6.49611 7.641 6.49609H4.99927L11.4953 15.1575ZM17.9914 45.4725H22.3221H17.9914Z" stroke="#2F2105" stroke-width="3.24804" stroke-linecap="round" stroke-linejoin="round"/>
<circle cx="44.5171" cy="14.6162" r="7.30808" fill="#B6C37F" stroke="white" stroke-width="1.62402"/>
</svg>
