<svg width="48" height="48" viewBox="0 0 48 48" fill="none" xmlns="http://www.w3.org/2000/svg">
<g clip-path="url(#clip0_267_31015)">
<path d="M33.9597 23.8104C33.9597 23.0238 33.8919 22.4498 33.7451 21.8545H24.1986V25.4049H29.8022C29.6892 26.2872 29.0792 27.616 27.7234 28.5088L27.7044 28.6277L30.7228 30.8279L30.932 30.8475C32.8525 29.1786 33.9597 26.723 33.9597 23.8104Z" fill="#4285F4"/>
<path d="M24.198 33.1649C26.9433 33.1649 29.248 32.3144 30.9314 30.8475L27.7229 28.5089C26.8643 29.0723 25.7119 29.4656 24.198 29.4656C21.5092 29.4656 19.2271 27.7967 18.4136 25.49L18.2944 25.4995L15.1558 27.785L15.1148 27.8923C16.7868 31.0175 20.2213 33.1649 24.198 33.1649Z" fill="#34A853"/>
<path d="M18.4142 25.4898C18.1995 24.8946 18.0753 24.2567 18.0753 23.5977C18.0753 22.9386 18.1995 22.3008 18.4029 21.7055L18.3972 21.5788L15.2193 19.2566L15.1153 19.3031C14.4262 20.6 14.0308 22.0563 14.0308 23.5977C14.0308 25.139 14.4262 26.5953 15.1153 27.8922L18.4142 25.4898Z" fill="#FBBC05"/>
<path d="M24.198 17.73C26.1073 17.73 27.3952 18.506 28.1296 19.1545L30.9992 16.5182C29.2368 14.9768 26.9433 14.0308 24.198 14.0308C20.2213 14.0308 16.7868 16.178 15.1148 19.3032L18.4023 21.7056C19.2271 19.3989 21.5092 17.73 24.198 17.73Z" fill="#EB4335"/>
</g>
<circle cx="24" cy="24" r="23.5" stroke="#9C9C9C"/>
<defs>
<clipPath id="clip0_267_31015">
<rect width="19.9385" height="19.2" fill="white" transform="translate(14.0308 14.0308)"/>
</clipPath>
</defs>
</svg>
