<svg width="48" height="48" viewBox="0 0 48 48" fill="none" xmlns="http://www.w3.org/2000/svg">
<path d="M34.7077 23.6939C34.7077 17.9492 29.9136 13.2922 24 13.2922C18.0863 13.2922 13.2923 17.9492 13.2923 23.6939C13.2923 28.8856 17.208 33.1889 22.3269 33.9692V26.7006H19.6082V23.6939H22.3269V21.4023C22.3269 18.7954 23.9255 17.3554 26.3713 17.3554C27.5429 17.3554 28.7683 17.5585 28.7683 17.5585V20.1183H27.4181C26.0878 20.1183 25.6731 20.9201 25.6731 21.7428V23.6939H28.6428L28.168 26.7006H25.6731V33.9692C30.792 33.1889 34.7077 28.8857 34.7077 23.6939Z" fill="#1877F2"/>
<circle cx="24" cy="24" r="23.5" stroke="#9C9C9C"/>
</svg>
