<svg width="26" height="17" viewBox="0 0 26 17" fill="none" xmlns="http://www.w3.org/2000/svg">
<path d="M25.1333 16.7998H0.866667C0.636812 16.7998 0.416372 16.6944 0.253841 16.5069C0.0913092 16.3194 0 16.065 0 15.7998C0 15.5346 0.0913092 15.2802 0.253841 15.0927C0.416372 14.9052 0.636812 14.7998 0.866667 14.7998H25.1333C25.3632 14.7998 25.5836 14.9052 25.7462 15.0927C25.9087 15.2802 26 15.5346 26 15.7998C26 16.065 25.9087 16.3194 25.7462 16.5069C25.5836 16.6944 25.3632 16.7998 25.1333 16.7998Z" fill="#323334"/>
<path d="M25.1333 9.7998H0.866667C0.636812 9.7998 0.416372 9.69445 0.253841 9.50691C0.0913092 9.31938 0 9.06502 0 8.7998C0 8.53459 0.0913092 8.28023 0.253841 8.0927C0.416372 7.90516 0.636812 7.7998 0.866667 7.7998H25.1333C25.3632 7.7998 25.5836 7.90516 25.7462 8.0927C25.9087 8.28023 26 8.53459 26 8.7998C26 9.06502 25.9087 9.31938 25.7462 9.50691C25.5836 9.69445 25.3632 9.7998 25.1333 9.7998Z" fill="#323334"/>
<path d="M25.1333 2.7998H0.866667C0.636812 2.7998 0.416372 2.69445 0.253841 2.50691C0.0913092 2.31937 0 2.06502 0 1.7998C0 1.53459 0.0913092 1.28023 0.253841 1.0927C0.416372 0.905162 0.636812 0.799805 0.866667 0.799805H25.1333C25.3632 0.799805 25.5836 0.905162 25.7462 1.0927C25.9087 1.28023 26 1.53459 26 1.7998C26 2.06502 25.9087 2.31937 25.7462 2.50691C25.5836 2.69445 25.3632 2.7998 25.1333 2.7998Z" fill="#323334"/>
</svg>
