<svg width="12" height="16" viewBox="0 0 12 16" fill="none" xmlns="http://www.w3.org/2000/svg">
<path d="M6 8C6.4125 8 6.76575 7.853 7.05975 7.559C7.35325 7.2655 7.5 6.9125 7.5 6.5C7.5 6.0875 7.35325 5.73425 7.05975 5.44025C6.76575 5.14675 6.4125 5 6 5C5.5875 5 5.2345 5.14675 4.941 5.44025C4.647 5.73425 4.5 6.0875 4.5 6.5C4.5 6.9125 4.647 7.2655 4.941 7.559C5.2345 7.853 5.5875 8 6 8ZM6 13.5125C7.525 12.1125 8.65625 10.8405 9.39375 9.6965C10.1312 8.553 10.5 7.5375 10.5 6.65C10.5 5.2875 10.0655 4.17175 9.1965 3.30275C8.328 2.43425 7.2625 2 6 2C4.7375 2 3.67175 2.43425 2.80275 3.30275C1.93425 4.17175 1.5 5.2875 1.5 6.65C1.5 7.5375 1.86875 8.553 2.60625 9.6965C3.34375 10.8405 4.475 12.1125 6 13.5125ZM6 15.5C3.9875 13.7875 2.4845 12.1968 1.491 10.7278C0.497 9.25925 0 7.9 0 6.65C0 4.775 0.60325 3.28125 1.80975 2.16875C3.01575 1.05625 4.4125 0.5 6 0.5C7.5875 0.5 8.98425 1.05625 10.1902 2.16875C11.3967 3.28125 12 4.775 12 6.65C12 7.9 11.5033 9.25925 10.5098 10.7278C9.51575 12.1968 8.0125 13.7875 6 15.5Z" fill="#2F2105"/>
</svg>
