<svg width="51" height="52" viewBox="0 0 51 52" fill="none" xmlns="http://www.w3.org/2000/svg">
<path d="M32.9383 30.7173H31.2595L30.6645 30.1435C32.747 27.7209 34.0008 24.5759 34.0008 21.1546C34.0008 13.5257 27.8169 7.3418 20.188 7.3418C12.5591 7.3418 6.37524 13.5257 6.37524 21.1546C6.37524 28.7835 12.5591 34.9673 20.188 34.9673C23.6093 34.9673 26.7544 33.7136 29.1769 31.631L29.7507 32.226V33.9048L40.3759 44.5088L43.5422 41.3425L32.9383 30.7173V30.7173ZM20.188 30.7173C14.8967 30.7173 10.6253 26.4459 10.6253 21.1546C10.6253 15.8632 14.8967 11.5919 20.188 11.5919C25.4794 11.5919 29.7507 15.8632 29.7507 21.1546C29.7507 26.4459 25.4794 30.7173 20.188 30.7173Z" fill="#363030"/>
</svg>
