<svg width="22" height="20" viewBox="0 0 22 20" fill="none" xmlns="http://www.w3.org/2000/svg">
<path d="M10.6877 3.25753L10.6982 3.2738L10.71 3.28921L11.1026 3.80341L11.5333 4.36754L11.9195 3.77208C13.6586 1.09076 15.9879 0.46096 17.8259 1.08725C19.6868 1.72136 21.2143 3.69705 21.2143 6.58351C21.2143 7.58836 20.6811 8.80764 19.7739 10.1334C18.877 11.4443 17.6624 12.7911 16.4046 14.0373C15.149 15.2814 13.8624 16.4134 12.8289 17.2958C12.4576 17.6128 12.1207 17.8962 11.8286 18.1418C11.7137 18.2384 11.6057 18.3292 11.5054 18.4139C11.357 18.5391 11.2215 18.654 11.1044 18.7555C10.9814 18.6519 10.8387 18.5349 10.6828 18.4081C10.5379 18.2903 10.3789 18.1618 10.2067 18.0227C9.93662 17.8045 9.63404 17.5601 9.30206 17.2888C8.22142 16.4059 6.87215 15.2735 5.55364 14.0289C4.2328 12.7821 2.95591 11.4349 2.01268 10.1238C1.05763 8.79627 0.5 7.5806 0.5 6.58351C0.5 3.70531 2.22518 1.57466 4.34595 0.809635C6.44338 0.0530273 8.97662 0.614494 10.6877 3.25753Z" stroke="#B16F2F"/>
</svg>
