<svg width="34" height="38" viewBox="0 0 34 38" fill="none" xmlns="http://www.w3.org/2000/svg">
<path d="M31.2461 0.533203H11.8676C11.2252 0.533203 10.6091 0.814924 10.1548 1.31639C9.70052 1.81786 9.44531 2.49799 9.44531 3.20718H31.2461V35.2948H11.8676V22.1924H9.44531V35.2948C9.44531 36.004 9.70052 36.6842 10.1548 37.1856C10.6091 37.6871 11.2252 37.9688 11.8676 37.9688H31.2461C31.8885 37.9688 32.5046 37.6871 32.9589 37.1856C33.4131 36.6842 33.6684 36.004 33.6684 35.2948V3.20718C33.6684 2.49799 33.4131 1.81786 32.9589 1.31639C32.5046 0.814924 31.8885 0.533203 31.2461 0.533203V0.533203Z" fill="white"/>
<path d="M17.2142 24.4115C17.071 24.5413 16.9548 24.701 16.8727 24.8806C16.7906 25.0602 16.7444 25.2558 16.7371 25.4551C16.7299 25.6545 16.7616 25.8533 16.8304 26.039C16.8991 26.2248 17.0034 26.3935 17.1367 26.5346C17.27 26.6756 17.4294 26.786 17.605 26.8588C17.7805 26.9316 17.9683 26.9652 18.1567 26.9575C18.345 26.9498 18.5299 26.901 18.6996 26.8141C18.8693 26.7272 19.0201 26.6041 19.1428 26.4526L27.0621 18.0712L19.1564 9.68987C18.8948 9.45272 18.5582 9.3288 18.214 9.34288C17.8697 9.35695 17.5432 9.50797 17.2996 9.76578C17.056 10.0236 16.9133 10.3692 16.9 10.7335C16.8867 11.0978 17.0038 11.454 17.2279 11.7309L21.8373 16.5079H2.00472C1.64197 16.5079 1.29408 16.6604 1.03757 16.9318C0.781066 17.2033 0.636963 17.5715 0.636963 17.9554C0.636963 18.3393 0.781066 18.7075 1.03757 18.979C1.29408 19.2505 1.64197 19.403 2.00472 19.403H21.8373L17.2142 24.4115Z" fill="white"/>
</svg>
