<svg width="23" height="23" viewBox="0 0 23 23" fill="none" xmlns="http://www.w3.org/2000/svg">
<path opacity="0.2" d="M11.5 5.03125C18.6875 5.03125 21.5625 11.5 21.5625 11.5C21.5625 11.5 18.6875 17.9688 11.5 17.9688C4.3125 17.9688 1.4375 11.5 1.4375 11.5C1.4375 11.5 4.3125 5.03125 11.5 5.03125ZM11.5 15.0938C12.2108 15.0938 12.9056 14.883 13.4966 14.4881C14.0876 14.0932 14.5482 13.5319 14.8202 12.8753C15.0922 12.2186 15.1634 11.496 15.0247 10.7989C14.886 10.1018 14.5438 9.46143 14.0412 8.95884C13.5386 8.45624 12.8982 8.11397 12.2011 7.9753C11.504 7.83664 10.7814 7.90781 10.1247 8.17981C9.46806 8.45181 8.90679 8.91243 8.51191 9.50342C8.11702 10.0944 7.90625 10.7892 7.90625 11.5C7.90625 12.4531 8.28488 13.3672 8.95884 14.0412C9.63279 14.7151 10.5469 15.0938 11.5 15.0938Z" fill="black" fill-opacity="0.4"/>
<path d="M18.1574 3.10859C18.2873 2.97274 18.4652 2.89315 18.653 2.88688C18.8408 2.8806 19.0236 2.94814 19.1623 3.07502C19.3009 3.2019 19.3843 3.37804 19.3947 3.56568C19.405 3.75333 19.3414 3.93756 19.2176 4.0789L17.4926 5.97461C20.7539 7.97812 22.1555 11.0687 22.2184 11.2125C22.2585 11.303 22.2792 11.401 22.2792 11.5C22.2792 11.599 22.2585 11.697 22.2184 11.7875C22.1914 11.8594 21.4277 13.5484 19.7387 15.2465C17.4836 17.4926 14.6356 18.6875 11.5 18.6875C9.88914 18.6939 8.29473 18.3634 6.81915 17.7172L4.84259 19.8914C4.77527 19.965 4.69338 20.0237 4.60212 20.064C4.51086 20.1042 4.41224 20.125 4.31251 20.125C4.13322 20.1232 3.96073 20.0562 3.82735 19.9363C3.7567 19.8733 3.69938 19.7967 3.65877 19.7112C3.61817 19.6256 3.59509 19.5328 3.5909 19.4382C3.58672 19.3436 3.60151 19.2491 3.6344 19.1603C3.66729 19.0715 3.71763 18.9901 3.78243 18.9211L18.1574 3.10859ZM13.9078 9.92773L10.1613 14.0426C10.5735 14.2617 11.0332 14.3759 11.5 14.375C12.0182 14.3751 12.5267 14.2353 12.9719 13.9701C13.4171 13.705 13.7824 13.3245 14.0291 12.8688C14.2758 12.4132 14.3947 11.8993 14.3734 11.3816C14.3521 10.8639 14.1912 10.3615 13.9078 9.92773ZM11.5 17.25C14.2672 17.25 16.684 16.2437 18.6785 14.2582C19.5048 13.446 20.2071 12.5166 20.7629 11.5C20.3406 10.7094 18.993 8.49921 16.5043 7.06171L14.8871 8.84062C15.5105 9.64229 15.8309 10.6382 15.7921 11.653C15.7532 12.6677 15.3574 13.6362 14.6745 14.3878C13.9916 15.1394 13.0654 15.6259 12.059 15.7616C11.0526 15.8974 10.0306 15.6736 9.17306 15.1297L7.85235 16.5852C9.01662 17.0306 10.2535 17.256 11.5 17.25ZM0.781649 11.2125C0.808602 11.1406 1.57227 9.45156 3.26134 7.75351C5.51642 5.50742 8.36446 4.3125 11.5 4.3125C12.1622 4.31129 12.8234 4.36538 13.4766 4.47421C13.5698 4.48948 13.6591 4.52299 13.7394 4.5728C13.8197 4.62262 13.8894 4.68778 13.9444 4.76455C13.9995 4.84132 14.0389 4.9282 14.0604 5.02021C14.0818 5.11222 14.085 5.20756 14.0695 5.30078C14.0365 5.48799 13.9315 5.65485 13.7771 5.76567C13.6226 5.87648 13.4309 5.92245 13.243 5.89375C12.6672 5.79574 12.0841 5.74764 11.5 5.75C8.73282 5.75 6.31603 6.75625 4.3215 8.73281C3.49649 9.54735 2.79706 10.4799 2.2461 11.5C2.89117 12.6845 3.73269 13.7508 4.73477 14.6535C4.80499 14.7166 4.86209 14.793 4.9028 14.8781C4.94351 14.9633 4.96704 15.0557 4.97205 15.15C4.97705 15.2442 4.96344 15.3386 4.93197 15.4276C4.90051 15.5166 4.85182 15.5986 4.78868 15.6687C4.72371 15.7458 4.64248 15.8075 4.55083 15.8494C4.45918 15.8914 4.35939 15.9125 4.2586 15.9113C4.08343 15.9107 3.91436 15.8469 3.78243 15.7316C1.72501 13.8898 0.817586 11.8773 0.781649 11.7875C0.741536 11.697 0.720814 11.599 0.720814 11.5C0.720814 11.401 0.741536 11.303 0.781649 11.2125Z" fill="black" fill-opacity="0.4"/>
<path d="M8.63398 11.2304C8.61822 11.4075 8.53654 11.5723 8.4051 11.6921C8.27367 11.8118 8.10205 11.8779 7.92421 11.8772H7.85234C7.66304 11.859 7.48868 11.7665 7.36744 11.62C7.24619 11.4735 7.18795 11.285 7.20546 11.0956C7.29637 10.1662 7.68468 9.29089 8.31269 8.59975C8.9407 7.90861 9.77491 7.4385 10.6914 7.25926C10.7846 7.24157 10.8804 7.2424 10.9733 7.26172C11.0662 7.28104 11.1543 7.31846 11.2328 7.37186C11.3911 7.47969 11.5002 7.64602 11.5359 7.83426C11.5717 8.0225 11.5312 8.21723 11.4233 8.37562C11.3155 8.534 11.1492 8.64305 10.9609 8.67879C10.3503 8.7974 9.79415 9.10968 9.37499 9.5693C8.95582 10.0289 8.69598 10.6114 8.63398 11.2304Z" fill="black" fill-opacity="0.4"/>
</svg>
