<svg width="21" height="20" viewBox="0 0 21 20" fill="none" xmlns="http://www.w3.org/2000/svg">
<path d="M10.5136 7.34938C9.08514 7.34938 7.91941 8.51187 7.91941 9.93636C7.91941 11.3609 9.08514 12.5233 10.5136 12.5233C11.942 12.5233 13.1078 11.3609 13.1078 9.93636C13.1078 8.51187 11.942 7.34938 10.5136 7.34938ZM18.2942 9.93636C18.2942 8.86508 18.3039 7.80351 18.2436 6.73417C18.1832 5.4921 17.8991 4.38977 16.9883 3.48151C16.0756 2.57131 14.9721 2.28991 13.7266 2.22975C12.6524 2.16958 11.5878 2.17929 10.5155 2.17929C9.44127 2.17929 8.37675 2.16958 7.30444 2.22975C6.05893 2.28991 4.95353 2.57326 4.04275 3.48151C3.13002 4.39171 2.84784 5.4921 2.78751 6.73417C2.72718 7.80545 2.73691 8.86702 2.73691 9.93636C2.73691 11.0057 2.72718 12.0692 2.78751 13.1386C2.84784 14.3806 3.13197 15.483 4.04275 16.3912C4.95548 17.3014 6.05893 17.5828 7.30444 17.643C8.3787 17.7031 9.44322 17.6934 10.5155 17.6934C11.5898 17.6934 12.6543 17.7031 13.7266 17.643C14.9721 17.5828 16.0775 17.2995 16.9883 16.3912C17.901 15.481 18.1832 14.3806 18.2436 13.1386C18.3058 12.0692 18.2942 11.0076 18.2942 9.93636V9.93636ZM10.5136 13.9168C8.30474 13.9168 6.5221 12.1391 6.5221 9.93636C6.5221 7.73364 8.30474 5.95594 10.5136 5.95594C12.7224 5.95594 14.5051 7.73364 14.5051 9.93636C14.5051 12.1391 12.7224 13.9168 10.5136 13.9168ZM14.6685 6.72252C14.1528 6.72252 13.7364 6.30721 13.7364 5.79292C13.7364 5.27862 14.1528 4.86331 14.6685 4.86331C15.1843 4.86331 15.6007 5.27862 15.6007 5.79292C15.6009 5.91504 15.5769 6.03599 15.5301 6.14884C15.4833 6.2617 15.4146 6.36424 15.328 6.45059C15.2414 6.53694 15.1386 6.60541 15.0255 6.65207C14.9123 6.69874 14.791 6.72268 14.6685 6.72252V6.72252Z" fill="white"/>
</svg>
