<svg width="21" height="20" viewBox="0 0 21 20" fill="none" xmlns="http://www.w3.org/2000/svg">
<path d="M18.6809 4.93536C18.0854 5.19154 17.4374 5.37591 16.7698 5.44771C17.4629 5.03713 17.9819 4.38847 18.2294 3.62343C17.5791 4.00923 16.8667 4.27975 16.1237 4.42301C15.8132 4.09198 15.4377 3.82826 15.0205 3.64829C14.6033 3.46832 14.1534 3.37596 13.6989 3.37696C11.8598 3.37696 10.3807 4.86356 10.3807 6.68784C10.3807 6.94401 10.4119 7.20019 10.4625 7.44666C7.70873 7.30305 5.25273 5.99112 3.61994 3.98247C3.32243 4.48922 3.16653 5.06622 3.16844 5.65343C3.16844 6.80234 3.75423 7.8154 4.64749 8.4112C4.12108 8.39053 3.60699 8.24624 3.14704 7.99006V8.03082C3.14704 9.63968 4.28746 10.973 5.80738 11.2796C5.522 11.3535 5.22842 11.3913 4.93357 11.3922C4.71755 11.3922 4.51321 11.3708 4.30692 11.3417C4.72728 12.6536 5.95139 13.6065 7.40903 13.6376C6.26861 14.5284 4.84016 15.0524 3.2891 15.0524C3.01081 15.0524 2.75392 15.0427 2.4873 15.0116C3.95857 15.9529 5.70423 16.4963 7.58418 16.4963C13.6872 16.4963 17.0267 11.4543 17.0267 7.07792C17.0267 6.93431 17.0267 6.7907 17.017 6.64708C17.6631 6.17549 18.2294 5.59133 18.6809 4.93536Z" fill="white"/>
</svg>
