<svg width="21" height="20" viewBox="0 0 21 20" fill="none" xmlns="http://www.w3.org/2000/svg">
<g clip-path="url(#clip0_265_30678)">
<path d="M8.69694 0H7.57598L6.82867 2.85675L6.08136 0H4.83585C5.08495 0.745238 5.33405 1.36627 5.58315 2.11151C5.95681 3.10516 6.20591 3.9746 6.20591 4.47143V7.45238H7.32687V4.47143L8.69694 0ZM11.6862 5.58929V3.72619C11.6862 3.10516 11.5616 2.73254 11.3125 2.35992C11.0634 1.9873 10.6898 1.8631 10.1916 1.8631C9.69335 1.8631 9.3197 2.11151 9.07059 2.48413C8.82149 2.73254 8.69694 3.10516 8.69694 3.72619V5.71349C8.69694 6.33452 8.82149 6.70714 9.07059 6.95556C9.3197 7.32818 9.69335 7.45238 10.1916 7.45238C10.6898 7.45238 11.0634 7.20397 11.3125 6.83135C11.5616 6.70714 11.6862 6.21032 11.6862 5.58929ZM10.6898 5.8377C10.6898 6.33452 10.5652 6.58294 10.1916 6.58294C9.8179 6.58294 9.69335 6.33452 9.69335 5.8377V3.47778C9.69335 2.98095 9.8179 2.73254 10.1916 2.73254C10.5652 2.73254 10.6898 2.98095 10.6898 3.47778V5.8377V5.8377ZM15.4227 7.45238V1.8631H14.4263V6.08611C14.1772 6.45873 14.0526 6.58294 13.8035 6.58294C13.679 6.58294 13.5544 6.45873 13.5544 6.33452V1.8631H12.558V6.21032C12.558 6.58294 12.558 6.83135 12.6826 7.07976C12.6826 7.32818 12.9317 7.45238 13.3053 7.45238C13.679 7.45238 14.0526 7.20397 14.4263 6.83135V7.45238H15.4227Z" fill="white"/>
<path d="M15.9197 13.0415C15.5463 13.0415 15.4219 13.2899 15.4219 13.7867V14.2836H16.4176V13.7867C16.4176 13.2899 16.2931 13.0415 15.9197 13.0415Z" fill="white"/>
<path d="M12.3084 13.0415C12.1839 13.0415 11.935 13.1657 11.8105 13.2899V16.6435C11.935 16.7677 12.1839 16.8919 12.3084 16.8919C12.5573 16.8919 12.6818 16.6435 12.6818 16.1467V13.7867C12.6818 13.2899 12.5573 13.0415 12.3084 13.0415V13.0415Z" fill="white"/>
<path d="M18.4124 10.3091C18.1633 9.4397 17.416 8.69446 16.6687 8.69446C14.6758 8.44604 12.5585 8.44604 10.4411 8.44604C8.32372 8.44604 6.3309 8.44604 4.21353 8.69446C3.46622 8.69446 2.71891 9.4397 2.46981 10.3091C2.2207 11.5512 2.2207 12.9175 2.2207 14.1595C2.2207 15.4016 2.2207 16.7679 2.46981 18.0099C2.71891 18.8794 3.34167 19.5004 4.21353 19.6246C6.3309 19.873 8.32372 19.873 10.4411 19.873C12.5585 19.873 14.5513 19.873 16.6687 19.6246C17.5405 19.5004 18.2878 18.8794 18.4124 18.0099C18.6615 16.7679 18.6615 15.4016 18.6615 14.1595C18.6615 12.9175 18.6615 11.5512 18.4124 10.3091ZM6.95366 11.427H5.70814V17.7615H4.58718V11.427H3.46622V10.3091H6.95366V11.427V11.427ZM9.94289 17.7615H8.94648V17.1405C8.57282 17.6373 8.19917 17.7615 7.82552 17.7615C7.45186 17.7615 7.32731 17.6373 7.20276 17.3889C7.20276 17.2647 7.07821 17.0163 7.07821 16.5195V12.1722H8.07462V16.5195C8.07462 16.6437 8.19917 16.7679 8.32372 16.7679C8.57282 16.7679 8.69738 16.6437 8.94648 16.271V12.1722H9.94289V17.7615ZM13.6794 16.0226C13.6794 16.5195 13.6794 16.8921 13.5549 17.1405C13.4303 17.5131 13.1812 17.7615 12.8076 17.7615C12.4339 17.7615 12.0603 17.5131 11.8112 17.1405V17.6373H10.8147V10.3091H11.8112V12.6691C12.1848 12.2964 12.4339 12.048 12.8076 12.048C13.1812 12.048 13.4303 12.2964 13.5549 12.6691C13.6794 12.9175 13.6794 13.2901 13.6794 13.7869V16.0226V16.0226ZM17.416 15.1532H15.4232V16.1468C15.4232 16.6437 15.5477 16.8921 15.9214 16.8921C16.1705 16.8921 16.295 16.7679 16.4196 16.5195V15.8984H17.416V16.6437C17.416 16.8921 17.2914 17.0163 17.1669 17.2647C16.9178 17.6373 16.5441 17.8857 15.9214 17.8857C15.4232 17.8857 15.0495 17.6373 14.6758 17.2647C14.4267 17.0163 14.3022 16.5195 14.3022 16.0226V14.1595C14.3022 13.5385 14.4267 13.1659 14.5513 12.9175C14.8004 12.5449 15.174 12.2964 15.7968 12.2964C16.295 12.2964 16.6687 12.5449 16.9178 12.9175C17.1669 13.1659 17.1669 13.6627 17.1669 14.1595V15.1532H17.416Z" fill="white"/>
</g>
<defs>
<clipPath id="clip0_265_30678">
<rect width="19.9282" height="19.873" fill="white" transform="translate(0.476562)"/>
</clipPath>
</defs>
</svg>
